<svg width="21" height="18" viewBox="0 0 21 18" fill="none" xmlns="http://www.w3.org/2000/svg">
<path d="M9.26133 17.5102L9.15879 17.4155L1.97285 10.7181C0.713672 9.54497 0 7.89842 0 6.17367V6.03782C0 3.1399 2.05078 0.653611 4.88906 0.11025C6.50508 -0.202594 8.15801 0.171996 9.47461 1.1023C9.84375 1.36574 10.1883 1.67035 10.5 2.02025C10.6723 1.82266 10.8568 1.64154 11.0537 1.47277C11.2055 1.34105 11.3613 1.21755 11.5254 1.1023C12.842 0.171996 14.4949 -0.202594 16.1109 0.106134C18.9492 0.649495 21 3.1399 21 6.03782V6.17367C21 7.89842 20.2863 9.54497 19.0271 10.7181L11.8412 17.4155L11.7387 17.5102C11.4023 17.823 10.9594 18 10.5 18C10.0406 18 9.59766 17.8271 9.26133 17.5102ZM9.80684 4.20604C9.79043 4.19369 9.77812 4.17722 9.76582 4.16076L9.03574 3.33749L9.03164 3.33337C8.08418 2.26723 6.65273 1.7815 5.2582 2.04906C3.34687 2.41542 1.96875 4.08666 1.96875 6.03782V6.17367C1.96875 7.34683 2.45684 8.4706 3.31406 9.26918L10.5 15.9665L17.6859 9.26918C18.1101 8.87369 18.4485 8.3947 18.68 7.8621C18.9114 7.3295 19.031 6.75472 19.0312 6.17367V6.03782C19.0312 4.09078 17.6531 2.41542 15.7459 2.04906C14.3514 1.7815 12.9158 2.27135 11.9725 3.33337L11.9684 3.33749L11.9643 3.3416L11.2342 4.16488C11.2219 4.18134 11.2055 4.19369 11.1932 4.21016C11.0086 4.39539 10.7584 4.4983 10.5 4.4983C10.2416 4.4983 9.99141 4.39539 9.80684 4.21016V4.20604Z" fill="#91A3BD"/>
</svg>
