<svg width="19" height="18" viewBox="0 0 19 18" fill="none" xmlns="http://www.w3.org/2000/svg">
<path d="M18.4653 6.75102C18.3682 6.45142 18.1856 6.18714 17.9404 5.99104C17.6952 5.79494 17.3981 5.67566 17.086 5.64803L12.5308 5.25169L10.7487 0.979601C10.6261 0.689081 10.4212 0.441279 10.1596 0.267083C9.89795 0.0928868 9.59115 0 9.27741 0C8.96367 0 8.65687 0.0928868 8.39524 0.267083C8.13362 0.441279 7.92875 0.689081 7.80616 0.979601L6.02163 5.25169L1.46643 5.64803C1.15267 5.67416 0.853569 5.79293 0.60666 5.98943C0.359751 6.18593 0.176029 6.45141 0.0785468 6.75256C-0.0189354 7.05371 -0.0258358 7.37711 0.0587114 7.68219C0.143259 7.98727 0.315487 8.26043 0.553788 8.46741L4.01574 11.5063L2.97684 16.0276C2.90559 16.3354 2.92613 16.6576 3.0359 16.9538C3.14567 17.25 3.3398 17.5071 3.59401 17.6929C3.84822 17.8787 4.15124 17.985 4.46518 17.9985C4.77913 18.012 5.09007 17.9322 5.35913 17.7689L9.27501 15.3764L13.1909 17.7689C13.4599 17.9319 13.7708 18.0116 14.0846 17.9979C14.3984 17.9843 14.7012 17.8779 14.9553 17.6922C15.2094 17.5064 15.4034 17.2494 15.5131 16.9534C15.6229 16.6574 15.6435 16.3353 15.5724 16.0276L14.5335 11.5063L17.9954 8.46741C18.2331 8.25968 18.4045 7.98596 18.4881 7.68061C18.5717 7.37526 18.5638 7.05187 18.4653 6.75102ZM13.131 10.1774C12.9118 10.3692 12.7487 10.6175 12.6593 10.8955C12.5699 11.1736 12.5575 11.4709 12.6235 11.7555L13.5337 15.7205L10.1021 13.6238C9.85293 13.4712 9.56678 13.3904 9.27501 13.3904C8.98324 13.3904 8.69709 13.4712 8.44788 13.6238L5.01629 15.7205L5.92653 11.7555C5.9925 11.4709 5.98011 11.1736 5.8907 10.8955C5.80128 10.6175 5.63823 10.3692 5.41907 10.1774L2.37507 7.50591L6.38205 7.157C6.67222 7.13201 6.95 7.02743 7.18518 6.85463C7.42035 6.68184 7.6039 6.44746 7.71585 6.17701L9.27501 2.43954L10.8342 6.17701C10.9461 6.44746 11.1297 6.68184 11.3648 6.85463C11.6 7.02743 11.8778 7.13201 12.168 7.157L16.1749 7.50591L13.131 10.1774Z" fill="#91A3BD"/>
</svg>
